<mxfile host="Electron" modified="2023-06-13T19:42:24.441Z" agent="Mozilla/5.0 (Macintosh; Intel Mac OS X 10_15_7) AppleWebKit/537.36 (KHTML, like Gecko) draw.io/21.3.7 Chrome/112.0.5615.204 Electron/24.5.0 Safari/537.36" etag="mFNqZJmEn2B08FY36NeA" version="21.3.7" type="device">
  <diagram name="Página-1" id="kkzLbv9Y-1G9x1TP5E9l">
    <mxGraphModel dx="378" dy="273" grid="1" gridSize="10" guides="1" tooltips="1" connect="1" arrows="1" fold="1" page="1" pageScale="1" pageWidth="827" pageHeight="1169" math="0" shadow="0">
      <root>
        <mxCell id="0" />
        <mxCell id="1" parent="0" />
        <mxCell id="_aOGYPsXmDmC9HBMNXtq-1" value="" style="shape=cylinder3;whiteSpace=wrap;html=1;boundedLbl=1;backgroundOutline=1;size=15;fillColor=#FFFFFF;strokeColor=#1A1A1A;" vertex="1" parent="1">
          <mxGeometry x="171.71" y="245" width="64.29" height="50" as="geometry" />
        </mxCell>
        <mxCell id="LFsvHJUoIW84cKthlYZu-6" value="" style="edgeStyle=orthogonalEdgeStyle;rounded=0;orthogonalLoop=1;jettySize=auto;html=1;exitX=1;exitY=0.5;exitDx=0;exitDy=0;exitPerimeter=0;" parent="1" edge="1">
          <mxGeometry relative="1" as="geometry">
            <mxPoint x="236" y="270" as="sourcePoint" />
            <mxPoint x="330" y="270" as="targetPoint" />
          </mxGeometry>
        </mxCell>
        <mxCell id="LFsvHJUoIW84cKthlYZu-7" value="" style="edgeStyle=orthogonalEdgeStyle;rounded=0;orthogonalLoop=1;jettySize=auto;html=1;" parent="1" target="LFsvHJUoIW84cKthlYZu-5" edge="1">
          <mxGeometry relative="1" as="geometry">
            <mxPoint x="390" y="270" as="sourcePoint" />
          </mxGeometry>
        </mxCell>
        <mxCell id="LFsvHJUoIW84cKthlYZu-8" value="" style="edgeStyle=orthogonalEdgeStyle;rounded=0;orthogonalLoop=1;jettySize=auto;html=1;" parent="1" source="LFsvHJUoIW84cKthlYZu-5" edge="1">
          <mxGeometry relative="1" as="geometry">
            <mxPoint x="578.0000000000001" y="270" as="targetPoint" />
          </mxGeometry>
        </mxCell>
        <mxCell id="LFsvHJUoIW84cKthlYZu-5" value="&lt;font style=&quot;font-size: 18px;&quot;&gt;...&lt;/font&gt;" style="text;html=1;strokeColor=none;fillColor=none;align=center;verticalAlign=middle;whiteSpace=wrap;rounded=0;" parent="1" vertex="1">
          <mxGeometry x="450" y="255" width="60" height="30" as="geometry" />
        </mxCell>
        <mxCell id="LFsvHJUoIW84cKthlYZu-14" style="edgeStyle=orthogonalEdgeStyle;rounded=0;orthogonalLoop=1;jettySize=auto;html=1;entryX=0;entryY=0.5;entryDx=0;entryDy=0;entryPerimeter=0;" parent="1" source="LFsvHJUoIW84cKthlYZu-13" target="_aOGYPsXmDmC9HBMNXtq-1" edge="1">
          <mxGeometry relative="1" as="geometry">
            <Array as="points">
              <mxPoint x="100" y="270" />
            </Array>
            <mxPoint x="170" y="270" as="targetPoint" />
          </mxGeometry>
        </mxCell>
        <mxCell id="LFsvHJUoIW84cKthlYZu-13" value="Início" style="rhombus;whiteSpace=wrap;html=1;fontSize=14;" parent="1" vertex="1">
          <mxGeometry x="70" y="175" width="60" height="80" as="geometry" />
        </mxCell>
        <mxCell id="LFsvHJUoIW84cKthlYZu-16" value="T[i=h&lt;sub style=&quot;&quot;&gt;&lt;font style=&quot;font-size: 10px;&quot;&gt;1&lt;/font&gt;&lt;/sub&gt;&lt;font style=&quot;font-size: 14px;&quot;&gt;,j=h&lt;/font&gt;&lt;sub style=&quot;&quot;&gt;&lt;font style=&quot;font-size: 10px;&quot;&gt;2&lt;/font&gt;&lt;/sub&gt;]" style="text;html=1;strokeColor=none;fillColor=none;align=center;verticalAlign=middle;whiteSpace=wrap;rounded=0;fontSize=14;" parent="1" vertex="1">
          <mxGeometry x="236" y="270" width="89" height="30" as="geometry" />
        </mxCell>
        <mxCell id="LFsvHJUoIW84cKthlYZu-19" value="T[i=h&lt;sub style=&quot;&quot;&gt;&lt;font style=&quot;font-size: 10px;&quot;&gt;2&lt;/font&gt;&lt;/sub&gt;&lt;font style=&quot;font-size: 14px;&quot;&gt;,j=h&lt;/font&gt;&lt;sub style=&quot;&quot;&gt;&lt;font style=&quot;font-size: 10px;&quot;&gt;3&lt;/font&gt;&lt;/sub&gt;]" style="text;html=1;strokeColor=none;fillColor=none;align=center;verticalAlign=middle;whiteSpace=wrap;rounded=0;fontSize=14;" parent="1" vertex="1">
          <mxGeometry x="385" y="270" width="89" height="30" as="geometry" />
        </mxCell>
        <mxCell id="LFsvHJUoIW84cKthlYZu-20" value="T[i=h&lt;sub style=&quot;&quot;&gt;&lt;font style=&quot;font-size: 10px;&quot;&gt;t-1&lt;/font&gt;&lt;/sub&gt;&lt;font style=&quot;font-size: 14px;&quot;&gt;,j=h&lt;/font&gt;&lt;sub style=&quot;&quot;&gt;&lt;font style=&quot;font-size: 10px;&quot;&gt;t&lt;/font&gt;&lt;/sub&gt;]" style="text;html=1;strokeColor=none;fillColor=none;align=center;verticalAlign=middle;whiteSpace=wrap;rounded=0;fontSize=14;" parent="1" vertex="1">
          <mxGeometry x="493" y="270" width="89" height="30" as="geometry" />
        </mxCell>
        <mxCell id="LFsvHJUoIW84cKthlYZu-21" value="∏&lt;sub style=&quot;border-color: var(--border-color);&quot;&gt;&lt;font style=&quot;font-size: 10px;&quot;&gt;0&lt;/font&gt;&lt;/sub&gt;[i=h&lt;sub style=&quot;&quot;&gt;&lt;font style=&quot;font-size: 10px;&quot;&gt;1&lt;/font&gt;&lt;/sub&gt;]" style="text;html=1;strokeColor=none;fillColor=none;align=center;verticalAlign=middle;whiteSpace=wrap;rounded=0;fontSize=14;" parent="1" vertex="1">
          <mxGeometry x="87" y="270" width="89" height="30" as="geometry" />
        </mxCell>
        <mxCell id="4HRlyaQ2i58HWHiF0hep-9" value="" style="edgeStyle=orthogonalEdgeStyle;rounded=0;orthogonalLoop=1;jettySize=auto;html=1;exitX=0.5;exitY=1;exitDx=0;exitDy=0;exitPerimeter=0;" parent="1" source="_aOGYPsXmDmC9HBMNXtq-1" target="4HRlyaQ2i58HWHiF0hep-8" edge="1">
          <mxGeometry relative="1" as="geometry">
            <mxPoint x="206" y="305" as="sourcePoint" />
          </mxGeometry>
        </mxCell>
        <mxCell id="_aOGYPsXmDmC9HBMNXtq-8" value="O[i=o&lt;sub style=&quot;border-color: var(--border-color); background-color: rgb(251, 251, 251);&quot;&gt;&lt;font style=&quot;border-color: var(--border-color); font-size: 8px;&quot;&gt;1&lt;/font&gt;&lt;/sub&gt;&lt;span style=&quot;font-size: 12px; background-color: rgb(251, 251, 251);&quot;&gt;, j=h&lt;/span&gt;&lt;sub style=&quot;border-color: var(--border-color); background-color: rgb(251, 251, 251);&quot;&gt;&lt;font style=&quot;border-color: var(--border-color); font-size: 8px;&quot;&gt;1&lt;/font&gt;&lt;/sub&gt;&lt;span style=&quot;font-size: 12px; background-color: rgb(251, 251, 251);&quot;&gt;]&lt;/span&gt;" style="edgeLabel;html=1;align=center;verticalAlign=middle;resizable=0;points=[];" vertex="1" connectable="0" parent="4HRlyaQ2i58HWHiF0hep-9">
          <mxGeometry x="-0.1399" y="1" relative="1" as="geometry">
            <mxPoint as="offset" />
          </mxGeometry>
        </mxCell>
        <mxCell id="4HRlyaQ2i58HWHiF0hep-14" value="" style="edgeStyle=orthogonalEdgeStyle;rounded=0;orthogonalLoop=1;jettySize=auto;html=1;entryX=0.5;entryY=0;entryDx=0;entryDy=0;exitX=0.5;exitY=1;exitDx=0;exitDy=0;exitPerimeter=0;" parent="1" source="_aOGYPsXmDmC9HBMNXtq-3" target="4HRlyaQ2i58HWHiF0hep-11" edge="1">
          <mxGeometry relative="1" as="geometry">
            <mxPoint x="360" y="305" as="sourcePoint" />
          </mxGeometry>
        </mxCell>
        <mxCell id="_aOGYPsXmDmC9HBMNXtq-7" value="O[i=o&lt;sub style=&quot;border-color: var(--border-color); background-color: rgb(251, 251, 251);&quot;&gt;&lt;font style=&quot;border-color: var(--border-color); font-size: 8px;&quot;&gt;2&lt;/font&gt;&lt;/sub&gt;&lt;span style=&quot;font-size: 12px; background-color: rgb(251, 251, 251);&quot;&gt;, j=h&lt;/span&gt;&lt;sub style=&quot;border-color: var(--border-color); background-color: rgb(251, 251, 251);&quot;&gt;&lt;font style=&quot;border-color: var(--border-color); font-size: 8px;&quot;&gt;2&lt;/font&gt;&lt;/sub&gt;&lt;span style=&quot;font-size: 12px; background-color: rgb(251, 251, 251);&quot;&gt;]&lt;/span&gt;" style="edgeLabel;html=1;align=center;verticalAlign=middle;resizable=0;points=[];" vertex="1" connectable="0" parent="4HRlyaQ2i58HWHiF0hep-14">
          <mxGeometry x="-0.0813" relative="1" as="geometry">
            <mxPoint as="offset" />
          </mxGeometry>
        </mxCell>
        <mxCell id="4HRlyaQ2i58HWHiF0hep-17" value="O[i=o&lt;sub style=&quot;border-color: var(--border-color); background-color: rgb(251, 251, 251);&quot;&gt;&lt;font style=&quot;border-color: var(--border-color); font-size: 8px;&quot;&gt;t&lt;/font&gt;&lt;/sub&gt;&lt;span style=&quot;font-size: 12px; background-color: rgb(251, 251, 251);&quot;&gt;, j=h&lt;/span&gt;&lt;sub style=&quot;border-color: var(--border-color); background-color: rgb(251, 251, 251);&quot;&gt;&lt;font style=&quot;border-color: var(--border-color); font-size: 8px;&quot;&gt;t&lt;/font&gt;&lt;/sub&gt;&lt;span style=&quot;font-size: 12px; background-color: rgb(251, 251, 251);&quot;&gt;]&lt;/span&gt;" style="edgeStyle=orthogonalEdgeStyle;rounded=0;orthogonalLoop=1;jettySize=auto;html=1;entryX=0.5;entryY=0;entryDx=0;entryDy=0;exitX=0.5;exitY=1;exitDx=0;exitDy=0;exitPerimeter=0;" parent="1" source="_aOGYPsXmDmC9HBMNXtq-5" target="4HRlyaQ2i58HWHiF0hep-15" edge="1">
          <mxGeometry relative="1" as="geometry">
            <mxPoint x="608.0000000000001" y="305" as="sourcePoint" />
          </mxGeometry>
        </mxCell>
        <mxCell id="4HRlyaQ2i58HWHiF0hep-5" value="&lt;font style=&quot;font-size: 18px;&quot;&gt;h&lt;/font&gt;&lt;sub&gt;&lt;font style=&quot;font-size: 12px;&quot;&gt;1&lt;/font&gt;&lt;/sub&gt;" style="text;html=1;strokeColor=none;fillColor=none;align=center;verticalAlign=middle;whiteSpace=wrap;rounded=0;" parent="1" vertex="1">
          <mxGeometry x="188" y="245" width="36" height="30" as="geometry" />
        </mxCell>
        <mxCell id="4HRlyaQ2i58HWHiF0hep-8" value="" style="ellipse;whiteSpace=wrap;html=1;aspect=fixed;" parent="1" vertex="1">
          <mxGeometry x="173.85" y="360" width="60" height="60" as="geometry" />
        </mxCell>
        <mxCell id="4HRlyaQ2i58HWHiF0hep-10" value="&lt;font style=&quot;&quot;&gt;&lt;span style=&quot;font-size: 18px;&quot;&gt;o&lt;/span&gt;&lt;sub style=&quot;&quot;&gt;&lt;font style=&quot;font-size: 12px;&quot;&gt;1&lt;/font&gt;&lt;/sub&gt;&lt;/font&gt;" style="text;html=1;strokeColor=none;fillColor=none;align=center;verticalAlign=middle;whiteSpace=wrap;rounded=0;" parent="1" vertex="1">
          <mxGeometry x="176" y="375" width="60" height="30" as="geometry" />
        </mxCell>
        <mxCell id="4HRlyaQ2i58HWHiF0hep-11" value="" style="ellipse;whiteSpace=wrap;html=1;aspect=fixed;" parent="1" vertex="1">
          <mxGeometry x="330" y="360" width="60" height="60" as="geometry" />
        </mxCell>
        <mxCell id="4HRlyaQ2i58HWHiF0hep-12" value="&lt;font style=&quot;&quot;&gt;&lt;span style=&quot;font-size: 18px;&quot;&gt;o&lt;/span&gt;&lt;sub style=&quot;&quot;&gt;&lt;font style=&quot;font-size: 12px;&quot;&gt;2&lt;/font&gt;&lt;/sub&gt;&lt;/font&gt;" style="text;html=1;strokeColor=none;fillColor=none;align=center;verticalAlign=middle;whiteSpace=wrap;rounded=0;" parent="1" vertex="1">
          <mxGeometry x="330" y="375" width="60" height="30" as="geometry" />
        </mxCell>
        <mxCell id="4HRlyaQ2i58HWHiF0hep-15" value="" style="ellipse;whiteSpace=wrap;html=1;aspect=fixed;" parent="1" vertex="1">
          <mxGeometry x="580.15" y="360" width="60" height="60" as="geometry" />
        </mxCell>
        <mxCell id="4HRlyaQ2i58HWHiF0hep-16" value="&lt;font style=&quot;&quot;&gt;&lt;span style=&quot;font-size: 18px;&quot;&gt;o&lt;/span&gt;&lt;sub style=&quot;&quot;&gt;&lt;font style=&quot;font-size: 12px;&quot;&gt;t&lt;/font&gt;&lt;/sub&gt;&lt;/font&gt;" style="text;html=1;strokeColor=none;fillColor=none;align=center;verticalAlign=middle;whiteSpace=wrap;rounded=0;" parent="1" vertex="1">
          <mxGeometry x="580.15" y="375" width="60" height="30" as="geometry" />
        </mxCell>
        <mxCell id="4HRlyaQ2i58HWHiF0hep-20" value="O[i=o&lt;sub style=&quot;&quot;&gt;&lt;font style=&quot;font-size: 8px;&quot;&gt;t&lt;/font&gt;&lt;/sub&gt;, j=h&lt;sub&gt;&lt;font style=&quot;font-size: 8px;&quot;&gt;t&lt;/font&gt;&lt;/sub&gt;]" style="text;html=1;strokeColor=none;fillColor=none;align=center;verticalAlign=middle;whiteSpace=wrap;rounded=0;" parent="1" vertex="1">
          <mxGeometry x="642.29" y="310" width="70" height="30" as="geometry" />
        </mxCell>
        <mxCell id="_aOGYPsXmDmC9HBMNXtq-3" value="" style="shape=cylinder3;whiteSpace=wrap;html=1;boundedLbl=1;backgroundOutline=1;size=15;fillColor=#FFFFFF;strokeColor=#1A1A1A;" vertex="1" parent="1">
          <mxGeometry x="327.85" y="245" width="64.29" height="50" as="geometry" />
        </mxCell>
        <mxCell id="_aOGYPsXmDmC9HBMNXtq-4" value="&lt;font style=&quot;font-size: 18px;&quot;&gt;h&lt;/font&gt;&lt;sub&gt;&lt;font style=&quot;font-size: 12px;&quot;&gt;2&lt;/font&gt;&lt;/sub&gt;" style="text;html=1;strokeColor=none;fillColor=none;align=center;verticalAlign=middle;whiteSpace=wrap;rounded=0;" vertex="1" parent="1">
          <mxGeometry x="344.14000000000004" y="245" width="36" height="30" as="geometry" />
        </mxCell>
        <mxCell id="_aOGYPsXmDmC9HBMNXtq-5" value="" style="shape=cylinder3;whiteSpace=wrap;html=1;boundedLbl=1;backgroundOutline=1;size=15;fillColor=#FFFFFF;strokeColor=#1A1A1A;" vertex="1" parent="1">
          <mxGeometry x="578" y="245" width="64.29" height="50" as="geometry" />
        </mxCell>
        <mxCell id="_aOGYPsXmDmC9HBMNXtq-6" value="&lt;font style=&quot;font-size: 18px;&quot;&gt;h&lt;/font&gt;&lt;sub&gt;&lt;font style=&quot;font-size: 12px;&quot;&gt;t&lt;/font&gt;&lt;/sub&gt;" style="text;html=1;strokeColor=none;fillColor=none;align=center;verticalAlign=middle;whiteSpace=wrap;rounded=0;" vertex="1" parent="1">
          <mxGeometry x="594.29" y="245" width="36" height="30" as="geometry" />
        </mxCell>
      </root>
    </mxGraphModel>
  </diagram>
</mxfile>
